<svg height="320" version="1.1" width="320" xmlns="http://www.w3.org/2000/svg" xmlns:xlink="http://www.w3.org/1999/xlink" style="overflow: hidden; position: relative; left: -0.599976px; top: -0.399994px;" viewBox="0 0 320 320" preserveAspectRatio="xMidYMid meet" id="main_svg"><svg height="320" version="1.1" width="320" xmlns="http://www.w3.org/2000/svg" xmlns:xlink="http://www.w3.org/1999/xlink" style="overflow: hidden; position: relative; top: -0.399994px;" viewBox="0 0 16 16" preserveAspectRatio="xMidYMid meet" id="imported_svg_layer_1"><path style="" fill="#d7b94b" stroke="none" d="M0,0H16V1H0ZM0,15H16V16H0Z" stroke-width="0" transform="matrix(1,0,0,1,0,0)"></path><desc>Created with Logotizer</desc><defs></defs></svg><svg height="320" version="1.1" width="320" xmlns="http://www.w3.org/2000/svg" xmlns:xlink="http://www.w3.org/1999/xlink" style="overflow: hidden; position: relative; top: -0.399994px;" viewBox="0 0 160 160" preserveAspectRatio="xMidYMid meet" id="imported_svg_layer_2"><desc>Created with Logotizer</desc><defs></defs><path style="display: none; cursor: move;" fill="#ffffff" stroke="#d5d5d5" d="M119.4201,90H158.77575000000002C158.79687,89.83075,158.82012,89.66223,158.8402,89.49261L79.4201,20L0,89.4926C0.0201,89.66223,0.04333,89.83075,0.06445,90H39.4201V149.27080999999998A79.92753,79.92753,0,0,0,119.42009999999999,149.27080999999998V90Z" stroke-width="2" transform="matrix(1,0,0,1,0,0)"></path></svg><desc>Created with Logotizer</desc><defs></defs><path style="" fill="#d7b94b" stroke="none" d="M-121.16,-7.97L-121.16,-41.72Q-103.82,-33.98,-91.81,-30.82Q-79.8,-27.66,-69.84,-27.66Q-57.88,-27.66,-51.5,-32.23Q-45.11,-36.8,-45.11,-45.82Q-45.11,-50.86,-47.92,-54.79Q-50.73,-58.71,-56.18,-62.34Q-61.63,-65.98,-78.39,-73.95Q-94.09,-81.33,-101.95,-88.13Q-109.8,-94.92,-114.48,-103.95Q-119.17,-112.97,-119.17,-125.04Q-119.17,-147.77,-103.76,-160.78Q-88.35,-173.79,-61.16,-173.79Q-47.81,-173.79,-35.68,-170.63Q-23.55,-167.46,-10.31,-161.72L-22.02,-133.48Q-35.73,-139.1,-44.7,-141.33Q-53.66,-143.55,-62.34,-143.55Q-72.65,-143.55,-78.16,-138.75Q-83.66,-133.95,-83.66,-126.21Q-83.66,-121.41,-81.44,-117.83Q-79.21,-114.26,-74.35,-110.92Q-69.48,-107.58,-51.32,-98.91Q-27.3,-87.42,-18.39,-75.88Q-9.48,-64.34,-9.48,-47.58Q-9.48,-24.38,-26.18,-11.02Q-42.88,2.34,-72.65,2.34Q-100.07,2.34,-121.16,-7.97ZM11.02,-7.97L11.02,-41.72Q28.37,-33.98,40.38,-30.82Q52.39,-27.66,62.35,-27.66Q74.3,-27.66,80.69,-32.23Q87.08,-36.8,87.08,-45.82Q87.08,-50.86,84.27,-54.79Q81.45,-58.71,76,-62.34Q70.55,-65.98,53.8,-73.95Q38.09,-81.33,30.24,-88.13Q22.39,-94.92,17.7,-103.95Q13.02,-112.97,13.02,-125.04Q13.02,-147.77,28.43,-160.78Q43.84,-173.79,71.02,-173.79Q84.38,-173.79,96.51,-170.63Q108.64,-167.46,121.88,-161.72L110.16,-133.48Q96.45,-139.1,87.49,-141.33Q78.52,-143.55,69.85,-143.55Q59.54,-143.55,54.03,-138.75Q48.52,-133.95,48.52,-126.21Q48.52,-121.41,50.75,-117.83Q52.98,-114.26,57.84,-110.92Q62.7,-107.58,80.87,-98.91Q104.89,-87.42,113.8,-75.88Q122.7,-64.34,122.7,-47.58Q122.7,-24.38,106,-11.02Q89.3,2.34,59.54,2.34Q32.12,2.34,11.02,-7.97Z" transform="matrix(1,0,0,1,160,244.0234)"></path></svg>