<svg width="71" height="59" viewBox="0 0 71 59" fill="none" xmlns="http://www.w3.org/2000/svg">
<path d="M37.12 49.816C37.008 49.816 36.888 49.816 36.76 49.816C36.648 49.816 36.552 49.808 36.472 49.792C36.328 49.776 36.088 49.72 35.752 49.624C35.416 49.528 35.064 49.4 34.696 49.24C34.344 49.096 34.04 48.928 33.784 48.736C33.544 48.544 33.424 48.336 33.424 48.112C33.424 48.016 33.48 47.968 33.592 47.968C33.864 47.968 34.136 48.04 34.408 48.184C34.696 48.328 34.992 48.416 35.296 48.448C35.424 48.464 35.56 48.48 35.704 48.496C35.864 48.496 36.04 48.496 36.232 48.496C36.632 48.496 37.048 48.464 37.48 48.4C37.912 48.32 38.28 48.184 38.584 47.992C38.888 47.8 39.048 47.528 39.064 47.176C39.064 46.952 38.92 46.672 38.632 46.336C38.344 45.984 37.976 45.584 37.528 45.136C37.096 44.672 36.664 44.168 36.232 43.624C35.8 43.064 35.432 42.464 35.128 41.824C34.84 41.184 34.696 40.52 34.696 39.832C34.696 38.968 34.904 38.216 35.32 37.576C35.736 36.936 36.28 36.416 36.952 36.016C37.624 35.6 38.36 35.296 39.16 35.104C39.96 34.896 40.744 34.792 41.512 34.792C41.896 34.792 42.256 34.816 42.592 34.864C43.024 34.912 43.488 35.024 43.984 35.2C44.496 35.36 44.936 35.616 45.304 35.968C45.672 36.304 45.856 36.752 45.856 37.312C45.856 37.904 45.664 38.472 45.28 39.016C44.912 39.56 44.456 40.04 43.912 40.456C43.384 40.856 42.864 41.16 42.352 41.368C42.256 41.416 42.16 41.44 42.064 41.44C41.984 41.408 41.944 41.368 41.944 41.32C42.024 41.144 42.216 40.904 42.52 40.6C42.84 40.28 43.184 39.928 43.552 39.544C43.936 39.16 44.264 38.752 44.536 38.32C44.824 37.872 44.968 37.432 44.968 37C44.968 36.712 44.864 36.496 44.656 36.352C44.448 36.192 44.2 36.072 43.912 35.992C43.64 35.912 43.4 35.856 43.192 35.824C43.096 35.808 43 35.8 42.904 35.8C42.808 35.8 42.704 35.8 42.592 35.8C41.872 35.8 41.096 35.928 40.264 36.184C39.448 36.424 38.672 36.768 37.936 37.216C37.2 37.664 36.6 38.2 36.136 38.824C35.672 39.432 35.44 40.112 35.44 40.864C35.44 41.312 35.6 41.792 35.92 42.304C36.24 42.8 36.64 43.312 37.12 43.84C37.6 44.368 38.08 44.896 38.56 45.424C39.04 45.936 39.44 46.44 39.76 46.936C40.08 47.416 40.24 47.864 40.24 48.28C40.24 48.68 40.064 48.992 39.712 49.216C39.376 49.44 38.96 49.592 38.464 49.672C37.984 49.768 37.536 49.816 37.12 49.816ZM46.9658 49.264C46.7258 49.264 46.4458 49.184 46.1258 49.024C45.8058 48.864 45.6458 48.648 45.6458 48.376C45.6458 48.136 45.7338 47.832 45.9098 47.464C46.0858 47.096 46.3018 46.704 46.5578 46.288C46.8138 45.872 47.0778 45.472 47.3498 45.088C47.6218 44.688 47.8538 44.352 48.0458 44.08C48.2538 43.792 48.3818 43.6 48.4298 43.504C48.6538 43.2 48.7898 43.008 48.8378 42.928C48.8858 42.848 48.9178 42.784 48.9338 42.736C48.8058 42.832 48.6058 42.984 48.3338 43.192C48.0618 43.384 47.7898 43.584 47.5178 43.792C47.2458 44 47.0458 44.16 46.9178 44.272C46.0218 45.056 45.2698 45.808 44.6618 46.528C44.0698 47.232 43.5178 47.984 43.0058 48.784C42.9898 48.8 42.9498 48.816 42.8858 48.832C42.8218 48.832 42.7738 48.832 42.7418 48.832C42.6458 48.832 42.5018 48.808 42.3098 48.76C42.1338 48.712 42.0618 48.608 42.0938 48.448C42.1898 48.208 42.3178 47.952 42.4778 47.68C42.6378 47.408 42.8618 47.04 43.1498 46.576C43.4378 46.096 43.8138 45.424 44.2778 44.56C44.4218 44.288 44.6618 43.84 44.9978 43.216C45.3498 42.592 45.7738 41.88 46.2698 41.08C46.7818 40.28 47.3498 39.488 47.9738 38.704C48.6138 37.904 49.3018 37.192 50.0378 36.568C50.7738 35.944 51.5418 35.496 52.3418 35.224C52.5498 35.144 52.7338 35.104 52.8938 35.104C53.1978 35.104 53.4058 35.208 53.5178 35.416C53.6458 35.608 53.8138 35.768 54.0218 35.896C54.1498 35.976 54.2138 36.104 54.2138 36.28C54.2138 36.536 53.9978 36.888 53.5658 37.336C53.1498 37.768 52.6138 38.248 51.9578 38.776C51.3018 39.288 50.6138 39.8 49.8938 40.312C49.1738 40.824 48.4938 41.296 47.8538 41.728C47.2298 42.16 46.7498 42.496 46.4138 42.736C46.3498 42.864 46.2218 43.072 46.0298 43.36C45.8538 43.632 45.6618 43.928 45.4538 44.248C45.2458 44.568 45.0538 44.864 44.8778 45.136C44.7018 45.408 44.5898 45.6 44.5418 45.712C44.9898 45.296 45.4618 44.856 45.9578 44.392C46.4698 43.928 46.9658 43.48 47.4458 43.048C47.9418 42.616 48.3738 42.248 48.7418 41.944C48.8218 41.88 48.9178 41.84 49.0298 41.824C49.1578 41.808 49.2618 41.8 49.3418 41.8C49.5658 41.8 49.8298 41.896 50.1338 42.088C50.4378 42.28 50.5898 42.512 50.5898 42.784C50.5898 42.96 50.4938 43.136 50.3018 43.312C49.8218 43.744 49.3338 44.248 48.8378 44.824C48.3418 45.384 47.8938 45.976 47.4938 46.6C47.3818 46.792 47.2218 47.072 47.0138 47.44C46.8218 47.808 46.7258 48.104 46.7258 48.328C46.7258 48.488 46.7738 48.568 46.8698 48.568C47.0618 48.568 47.3258 48.464 47.6618 48.256C48.0138 48.048 48.3898 47.784 48.7898 47.464C49.2058 47.128 49.6138 46.784 50.0138 46.432C50.4298 46.08 50.7978 45.752 51.1178 45.448C51.4378 45.144 51.6698 44.912 51.8138 44.752C51.9098 44.656 51.9898 44.608 52.0538 44.608C52.1498 44.608 52.1978 44.656 52.1978 44.752C52.1978 44.8 52.1658 44.872 52.1018 44.968C51.8938 45.24 51.5898 45.584 51.1898 46C50.7898 46.4 50.3498 46.816 49.8698 47.248C49.3898 47.664 48.9258 48.048 48.4778 48.4C48.0458 48.736 47.6858 48.992 47.3978 49.168C47.2858 49.232 47.1418 49.264 46.9658 49.264ZM46.9178 41.8C47.0458 41.704 47.2618 41.552 47.5658 41.344C47.8858 41.12 48.2378 40.872 48.6218 40.6C49.0218 40.312 49.4138 40.032 49.7978 39.76C50.1818 39.472 50.5018 39.216 50.7578 38.992C51.2698 38.544 51.6938 38.176 52.0298 37.888C52.3818 37.6 52.6858 37.264 52.9418 36.88C53.0058 36.8 53.0458 36.728 53.0618 36.664C53.0778 36.6 53.0858 36.544 53.0858 36.496C53.0858 36.4 53.0378 36.328 52.9418 36.28C52.8618 36.232 52.7578 36.208 52.6298 36.208C52.3898 36.208 52.0778 36.336 51.6938 36.592C51.3098 36.848 50.8938 37.192 50.4458 37.624C49.9978 38.04 49.5498 38.496 49.1018 38.992C48.6538 39.488 48.2378 39.984 47.8538 40.48C47.4698 40.96 47.1578 41.4 46.9178 41.8ZM52.1706 49.264C51.7066 49.264 51.3626 49.08 51.1386 48.712C50.9146 48.328 50.8026 47.936 50.8026 47.536C50.8026 46.992 50.9466 46.408 51.2346 45.784C51.5226 45.144 51.8666 44.536 52.2666 43.96C52.6826 43.384 53.0506 42.912 53.3706 42.544C53.4506 42.448 53.5546 42.4 53.6826 42.4C53.8266 42.4 53.9706 42.456 54.1146 42.568C54.4506 42.328 54.8346 42.112 55.2666 41.92C55.7146 41.728 56.1466 41.632 56.5626 41.632C57.2826 41.632 57.6426 42 57.6426 42.736C57.6426 43.44 57.4666 44.088 57.1146 44.68C56.7786 45.272 56.4026 45.848 55.9866 46.408C55.8746 46.552 55.7626 46.688 55.6506 46.816C55.5546 46.944 55.4426 47.072 55.3146 47.2C56.0186 47.008 56.6346 46.688 57.1626 46.24C57.6906 45.792 58.2106 45.328 58.7226 44.848C58.7866 44.784 58.8426 44.736 58.8906 44.704C58.9546 44.656 59.0346 44.632 59.1306 44.632C59.2106 44.632 59.2506 44.688 59.2506 44.8C59.2506 44.816 59.2266 44.856 59.1786 44.92C59.1306 44.984 59.0986 45.032 59.0826 45.064C58.5546 45.704 57.8986 46.304 57.1146 46.864C56.3466 47.408 55.5386 47.744 54.6906 47.872C54.3866 48.176 54.0026 48.488 53.5386 48.808C53.0746 49.112 52.6186 49.264 52.1706 49.264ZM54.0426 47.368C54.1066 47.368 54.1626 47.368 54.2106 47.368C54.2746 47.368 54.3386 47.36 54.4026 47.344C54.7226 46.96 55.0506 46.504 55.3866 45.976C55.7386 45.448 56.0346 44.904 56.2746 44.344C56.5146 43.768 56.6346 43.248 56.6346 42.784C56.6346 42.496 56.4986 42.352 56.2266 42.352C55.9546 42.352 55.6426 42.432 55.2906 42.592C54.9386 42.752 54.6426 42.92 54.4026 43.096V43.168C54.4026 43.328 54.2746 43.56 54.0186 43.864C53.7786 44.152 53.5146 44.448 53.2266 44.752C52.9546 45.056 52.7546 45.312 52.6266 45.52C52.5786 46.048 52.6826 46.488 52.9386 46.84C53.1946 47.192 53.5626 47.368 54.0426 47.368ZM52.1946 48.856C52.4986 48.856 52.7946 48.744 53.0826 48.52C53.3866 48.296 53.6426 48.088 53.8506 47.896C53.4666 47.864 53.1146 47.736 52.7946 47.512C52.4906 47.272 52.2106 47.008 51.9546 46.72C51.9066 46.816 51.8426 47 51.7626 47.272C51.6826 47.544 51.6426 47.816 51.6426 48.088C51.6426 48.296 51.6826 48.48 51.7626 48.64C51.8426 48.784 51.9866 48.856 52.1946 48.856ZM56.8259 56.776C56.2019 56.776 55.7779 56.592 55.5539 56.224C55.3139 55.856 55.1939 55.408 55.1939 54.88C55.1939 54.464 55.2419 54.032 55.3379 53.584C55.4339 53.152 55.5379 52.76 55.6499 52.408C56.2099 50.552 56.9699 48.808 57.9299 47.176C58.9059 45.528 60.0579 44 61.3859 42.592C61.3059 42.48 61.1859 42.36 61.0259 42.232C60.8819 42.104 60.8099 41.976 60.8099 41.848C60.8099 41.688 60.8579 41.584 60.9539 41.536C61.0499 41.472 61.1619 41.44 61.2899 41.44C61.3219 41.44 61.4499 41.456 61.6739 41.488C61.9139 41.504 62.1299 41.584 62.3219 41.728L63.5939 40.408C63.6899 40.312 63.7779 40.216 63.8579 40.12C63.9379 40.008 64.0259 39.912 64.1219 39.832C64.2019 39.752 64.2819 39.688 64.3619 39.64C64.4579 39.592 64.5619 39.568 64.6739 39.568C64.8499 39.568 64.9779 39.632 65.0579 39.76C65.1379 39.872 65.1779 40 65.1779 40.144C65.1779 40.304 65.1379 40.448 65.0579 40.576C64.9779 40.688 64.8739 40.808 64.7459 40.936C64.4899 41.192 64.2019 41.456 63.8819 41.728C63.5619 42 63.3219 42.24 63.1619 42.448C63.4179 42.688 63.6259 42.92 63.7859 43.144C63.9459 43.352 64.0819 43.616 64.1939 43.936C64.2419 44.096 64.2819 44.256 64.3139 44.416C64.3459 44.576 64.3619 44.744 64.3619 44.92C64.3619 45.528 64.1939 46.096 63.8579 46.624C63.5379 47.152 63.1059 47.616 62.5619 48.016C62.0179 48.4 61.4259 48.704 60.7859 48.928C60.1459 49.152 59.5219 49.264 58.9139 49.264C58.7539 49.264 58.5859 49.232 58.4099 49.168C58.2499 49.12 58.1059 49.04 57.9779 48.928C57.7699 49.28 57.5619 49.728 57.3539 50.272C57.1459 50.832 56.9539 51.408 56.7779 52C56.6019 52.608 56.4659 53.176 56.3699 53.704C56.2579 54.248 56.2019 54.68 56.2019 55C56.2019 55.336 56.2579 55.6 56.3699 55.792C56.4819 56 56.6739 56.104 56.9459 56.104C56.9939 56.104 57.1219 56.096 57.3299 56.08C57.5539 56.08 57.7539 56.032 57.9299 55.936C57.9619 56.16 57.8659 56.352 57.6419 56.512C57.4179 56.688 57.1459 56.776 56.8259 56.776ZM59.6579 48.712C59.7379 48.712 59.8099 48.712 59.8739 48.712C59.9539 48.696 60.0259 48.68 60.0899 48.664C60.6339 48.568 61.1459 48.376 61.6259 48.088C62.1059 47.8 62.4899 47.424 62.7779 46.96C63.0819 46.48 63.2339 45.936 63.2339 45.328C63.2339 44.96 63.1459 44.568 62.9699 44.152C62.8099 43.72 62.5459 43.392 62.1779 43.168C61.5859 43.776 60.9219 44.528 60.1859 45.424C59.4659 46.304 58.8179 47.264 58.2419 48.304C58.3219 48.224 58.3939 48.184 58.4579 48.184C58.5379 48.184 58.6099 48.216 58.6739 48.28C58.7539 48.344 58.8019 48.392 58.8179 48.424C59.0099 48.616 59.2899 48.712 59.6579 48.712Z" fill="#D7B94B"/>
<path d="M10.12 23.816C10.008 23.816 9.888 23.816 9.76 23.816C9.648 23.816 9.552 23.808 9.472 23.792C9.328 23.776 9.088 23.72 8.752 23.624C8.416 23.528 8.064 23.4 7.696 23.24C7.344 23.096 7.04 22.928 6.784 22.736C6.544 22.544 6.424 22.336 6.424 22.112C6.424 22.016 6.48 21.968 6.592 21.968C6.864 21.968 7.136 22.04 7.408 22.184C7.696 22.328 7.992 22.416 8.296 22.448C8.424 22.464 8.56 22.48 8.704 22.496C8.864 22.496 9.04 22.496 9.232 22.496C9.632 22.496 10.048 22.464 10.48 22.4C10.912 22.32 11.28 22.184 11.584 21.992C11.888 21.8 12.048 21.528 12.064 21.176C12.064 20.952 11.92 20.672 11.632 20.336C11.344 19.984 10.976 19.584 10.528 19.136C10.096 18.672 9.664 18.168 9.232 17.624C8.8 17.064 8.432 16.464 8.128 15.824C7.84 15.184 7.696 14.52 7.696 13.832C7.696 12.968 7.904 12.216 8.32 11.576C8.736 10.936 9.28 10.416 9.952 10.016C10.624 9.6 11.36 9.296 12.16 9.104C12.96 8.896 13.744 8.792 14.512 8.792C14.896 8.792 15.256 8.816 15.592 8.864C16.024 8.912 16.488 9.024 16.984 9.2C17.496 9.36 17.936 9.616 18.304 9.968C18.672 10.304 18.856 10.752 18.856 11.312C18.856 11.904 18.664 12.472 18.28 13.016C17.912 13.56 17.456 14.04 16.912 14.456C16.384 14.856 15.864 15.16 15.352 15.368C15.256 15.416 15.16 15.44 15.064 15.44C14.984 15.408 14.944 15.368 14.944 15.32C15.024 15.144 15.216 14.904 15.52 14.6C15.84 14.28 16.184 13.928 16.552 13.544C16.936 13.16 17.264 12.752 17.536 12.32C17.824 11.872 17.968 11.432 17.968 11C17.968 10.712 17.864 10.496 17.656 10.352C17.448 10.192 17.2 10.072 16.912 9.992C16.64 9.912 16.4 9.856 16.192 9.824C16.096 9.808 16 9.8 15.904 9.8C15.808 9.8 15.704 9.8 15.592 9.8C14.872 9.8 14.096 9.928 13.264 10.184C12.448 10.424 11.672 10.768 10.936 11.216C10.2 11.664 9.6 12.2 9.136 12.824C8.672 13.432 8.44 14.112 8.44 14.864C8.44 15.312 8.6 15.792 8.92 16.304C9.24 16.8 9.64 17.312 10.12 17.84C10.6 18.368 11.08 18.896 11.56 19.424C12.04 19.936 12.44 20.44 12.76 20.936C13.08 21.416 13.24 21.864 13.24 22.28C13.24 22.68 13.064 22.992 12.712 23.216C12.376 23.44 11.96 23.592 11.464 23.672C10.984 23.768 10.536 23.816 10.12 23.816ZM17.6138 23.24C17.3418 23.24 17.0138 23.136 16.6298 22.928C16.2458 22.72 15.9818 22.496 15.8378 22.256C15.7418 22.096 15.6938 21.904 15.6938 21.68C15.6938 21.168 15.8778 20.488 16.2458 19.64C16.6298 18.776 17.1098 17.848 17.6858 16.856C17.9418 16.408 18.2698 15.888 18.6698 15.296C19.0858 14.704 19.5498 14.096 20.0618 13.472C20.5738 12.832 21.1098 12.224 21.6698 11.648C22.2458 11.072 22.8138 10.568 23.3738 10.136C23.9498 9.704 24.4938 9.4 25.0058 9.224C25.2138 9.144 25.3978 9.104 25.5578 9.104C25.8618 9.104 26.0698 9.208 26.1818 9.416C26.3098 9.608 26.4778 9.768 26.6858 9.896C26.8138 9.976 26.8778 10.104 26.8778 10.28C26.8778 10.648 26.6778 11.088 26.2778 11.6C25.8778 12.112 25.3578 12.656 24.7178 13.232C24.0778 13.808 23.3898 14.384 22.6538 14.96C21.9178 15.52 21.2058 16.04 20.5178 16.52C19.8458 17 19.2698 17.4 18.7898 17.72C18.3098 18.04 18.0058 18.24 17.8778 18.32C17.6378 18.768 17.4138 19.28 17.2058 19.856C16.9978 20.432 16.8938 20.976 16.8938 21.488C16.8938 21.68 16.9178 21.896 16.9658 22.136C17.0298 22.36 17.1898 22.472 17.4458 22.472C17.6858 22.472 17.9658 22.384 18.2858 22.208C18.6058 22.032 18.9178 21.84 19.2218 21.632C19.5258 21.408 19.7658 21.224 19.9418 21.08C20.3578 20.744 20.7258 20.4 21.0458 20.048C21.3658 19.696 21.7418 19.296 22.1738 18.848C22.2058 18.816 22.2378 18.792 22.2698 18.776C22.3018 18.744 22.3418 18.728 22.3898 18.728C22.4858 18.728 22.5338 18.784 22.5338 18.896C22.5338 18.992 22.4938 19.08 22.4138 19.16C21.7738 19.864 21.1018 20.592 20.3978 21.344C19.7098 22.096 18.9418 22.688 18.0938 23.12C17.9338 23.2 17.7738 23.24 17.6138 23.24ZM18.6458 17.072C18.8858 16.992 19.2218 16.8 19.6538 16.496C20.0858 16.176 20.5658 15.8 21.0938 15.368C21.6378 14.936 22.1818 14.48 22.7258 14C23.2858 13.504 23.7978 13.032 24.2618 12.584C24.7418 12.12 25.1338 11.728 25.4378 11.408C25.7578 11.072 25.9418 10.84 25.9898 10.712C26.0218 10.616 26.0378 10.552 26.0378 10.52C26.0378 10.392 25.9738 10.304 25.8458 10.256C25.7338 10.208 25.6058 10.184 25.4618 10.184C25.3818 10.184 25.3018 10.192 25.2218 10.208C25.1418 10.224 25.0698 10.24 25.0058 10.256C24.7338 10.352 24.3738 10.592 23.9258 10.976C23.4778 11.344 22.9978 11.8 22.4858 12.344C21.9738 12.872 21.4618 13.432 20.9498 14.024C20.4538 14.616 19.9978 15.184 19.5818 15.728C19.1818 16.256 18.8698 16.704 18.6458 17.072ZM22.7114 22.784C21.7514 22.784 21.2714 22.312 21.2714 21.368C21.2714 21 21.3674 20.576 21.5594 20.096C21.7674 19.6 22.0394 19.104 22.3754 18.608C22.7114 18.112 23.0874 17.656 23.5034 17.24C23.9194 16.808 24.3434 16.464 24.7754 16.208C25.2234 15.936 25.6394 15.8 26.0234 15.8C26.1514 15.8 26.2394 15.832 26.2874 15.896C26.3514 15.944 26.3994 16.032 26.4314 16.16C26.4634 16.224 26.4874 16.296 26.5034 16.376C26.5194 16.456 26.5434 16.536 26.5754 16.616C26.6394 16.728 26.6954 16.84 26.7434 16.952C26.7914 17.064 26.8154 17.184 26.8154 17.312C26.8154 17.472 26.7754 17.616 26.6954 17.744C26.6154 17.856 26.5194 17.96 26.4074 18.056C26.2474 18.2 26.0074 18.384 25.6874 18.608C25.3674 18.816 25.0154 19.032 24.6314 19.256C24.2634 19.464 23.9034 19.648 23.5514 19.808C23.2154 19.968 22.9434 20.064 22.7354 20.096C22.5914 20.32 22.4394 20.6 22.2794 20.936C22.1354 21.256 22.0634 21.552 22.0634 21.824C22.0634 21.968 22.0954 22.096 22.1594 22.208C22.2394 22.32 22.3594 22.376 22.5194 22.376C22.7754 22.376 23.1114 22.256 23.5274 22.016C23.9594 21.76 24.4074 21.456 24.8714 21.104C25.3354 20.736 25.7594 20.384 26.1434 20.048C26.5434 19.696 26.8394 19.424 27.0314 19.232L27.7994 18.416C27.8954 18.32 27.9994 18.272 28.1114 18.272C28.2074 18.272 28.2554 18.312 28.2554 18.392C28.2554 18.488 28.1194 18.688 27.8474 18.992C27.5754 19.28 27.2474 19.608 26.8634 19.976C26.4954 20.328 26.1514 20.656 25.8314 20.96C25.5114 21.248 25.3034 21.432 25.2074 21.512C24.8714 21.8 24.4874 22.088 24.0554 22.376C23.6234 22.648 23.1754 22.784 22.7114 22.784ZM23.1434 19.472C23.3034 19.376 23.5434 19.224 23.8634 19.016C24.1994 18.808 24.5434 18.576 24.8954 18.32C25.2474 18.064 25.5434 17.808 25.7834 17.552C26.0394 17.296 26.1674 17.072 26.1674 16.88C26.1674 16.832 26.1594 16.792 26.1434 16.76C26.1274 16.744 26.0954 16.736 26.0474 16.736C25.8394 16.736 25.5914 16.848 25.3034 17.072C25.0154 17.296 24.7274 17.568 24.4394 17.888C24.1514 18.192 23.8874 18.496 23.6474 18.8C23.4234 19.088 23.2554 19.312 23.1434 19.472ZM27.9379 22.784C26.9779 22.784 26.4979 22.312 26.4979 21.368C26.4979 21 26.5939 20.576 26.7859 20.096C26.9939 19.6 27.2659 19.104 27.6019 18.608C27.9379 18.112 28.3139 17.656 28.7299 17.24C29.1459 16.808 29.5699 16.464 30.0019 16.208C30.4499 15.936 30.8659 15.8 31.2499 15.8C31.3779 15.8 31.4659 15.832 31.5139 15.896C31.5779 15.944 31.6259 16.032 31.6579 16.16C31.6899 16.224 31.7139 16.296 31.7299 16.376C31.7459 16.456 31.7699 16.536 31.8019 16.616C31.8659 16.728 31.9219 16.84 31.9699 16.952C32.0179 17.064 32.0419 17.184 32.0419 17.312C32.0419 17.472 32.0019 17.616 31.9219 17.744C31.8419 17.856 31.7459 17.96 31.6339 18.056C31.4739 18.2 31.2339 18.384 30.9139 18.608C30.5939 18.816 30.2419 19.032 29.8579 19.256C29.4899 19.464 29.1299 19.648 28.7779 19.808C28.4419 19.968 28.1699 20.064 27.9619 20.096C27.8179 20.32 27.6659 20.6 27.5059 20.936C27.3619 21.256 27.2899 21.552 27.2899 21.824C27.2899 21.968 27.3219 22.096 27.3859 22.208C27.4659 22.32 27.5859 22.376 27.7459 22.376C28.0019 22.376 28.3379 22.256 28.7539 22.016C29.1859 21.76 29.6339 21.456 30.0979 21.104C30.5619 20.736 30.9859 20.384 31.3699 20.048C31.7699 19.696 32.0659 19.424 32.2579 19.232L33.0259 18.416C33.1219 18.32 33.2259 18.272 33.3379 18.272C33.4339 18.272 33.4819 18.312 33.4819 18.392C33.4819 18.488 33.3459 18.688 33.0739 18.992C32.8019 19.28 32.4739 19.608 32.0899 19.976C31.7219 20.328 31.3779 20.656 31.0579 20.96C30.7379 21.248 30.5299 21.432 30.4339 21.512C30.0979 21.8 29.7139 22.088 29.2819 22.376C28.8499 22.648 28.4019 22.784 27.9379 22.784ZM28.3699 19.472C28.5299 19.376 28.7699 19.224 29.0899 19.016C29.4259 18.808 29.7699 18.576 30.1219 18.32C30.4739 18.064 30.7699 17.808 31.0099 17.552C31.2659 17.296 31.3939 17.072 31.3939 16.88C31.3939 16.832 31.3859 16.792 31.3699 16.76C31.3539 16.744 31.3219 16.736 31.2739 16.736C31.0659 16.736 30.8179 16.848 30.5299 17.072C30.2419 17.296 29.9539 17.568 29.6659 17.888C29.3779 18.192 29.1139 18.496 28.8739 18.8C28.6499 19.088 28.4819 19.312 28.3699 19.472ZM30.7165 30.776C30.0925 30.776 29.6685 30.592 29.4445 30.224C29.2045 29.856 29.0845 29.408 29.0845 28.88C29.0845 28.464 29.1325 28.032 29.2285 27.584C29.3245 27.152 29.4285 26.76 29.5405 26.408C30.1005 24.552 30.8605 22.808 31.8205 21.176C32.7965 19.528 33.9485 18 35.2765 16.592C35.1965 16.48 35.0765 16.36 34.9165 16.232C34.7725 16.104 34.7005 15.976 34.7005 15.848C34.7005 15.688 34.7485 15.584 34.8445 15.536C34.9405 15.472 35.0525 15.44 35.1805 15.44C35.2125 15.44 35.3405 15.456 35.5645 15.488C35.8045 15.504 36.0205 15.584 36.2125 15.728L37.4845 14.408C37.5805 14.312 37.6685 14.216 37.7485 14.12C37.8285 14.008 37.9165 13.912 38.0125 13.832C38.0925 13.752 38.1725 13.688 38.2525 13.64C38.3485 13.592 38.4525 13.568 38.5645 13.568C38.7405 13.568 38.8685 13.632 38.9485 13.76C39.0285 13.872 39.0685 14 39.0685 14.144C39.0685 14.304 39.0285 14.448 38.9485 14.576C38.8685 14.688 38.7645 14.808 38.6365 14.936C38.3805 15.192 38.0925 15.456 37.7725 15.728C37.4525 16 37.2125 16.24 37.0525 16.448C37.3085 16.688 37.5165 16.92 37.6765 17.144C37.8365 17.352 37.9725 17.616 38.0845 17.936C38.1325 18.096 38.1725 18.256 38.2045 18.416C38.2365 18.576 38.2525 18.744 38.2525 18.92C38.2525 19.528 38.0845 20.096 37.7485 20.624C37.4285 21.152 36.9965 21.616 36.4525 22.016C35.9085 22.4 35.3165 22.704 34.6765 22.928C34.0365 23.152 33.4125 23.264 32.8045 23.264C32.6445 23.264 32.4765 23.232 32.3005 23.168C32.1405 23.12 31.9965 23.04 31.8685 22.928C31.6605 23.28 31.4525 23.728 31.2445 24.272C31.0365 24.832 30.8445 25.408 30.6685 26C30.4925 26.608 30.3565 27.176 30.2605 27.704C30.1485 28.248 30.0925 28.68 30.0925 29C30.0925 29.336 30.1485 29.6 30.2605 29.792C30.3725 30 30.5645 30.104 30.8365 30.104C30.8845 30.104 31.0125 30.096 31.2205 30.08C31.4445 30.08 31.6445 30.032 31.8205 29.936C31.8525 30.16 31.7565 30.352 31.5325 30.512C31.3085 30.688 31.0365 30.776 30.7165 30.776ZM33.5485 22.712C33.6285 22.712 33.7005 22.712 33.7645 22.712C33.8445 22.696 33.9165 22.68 33.9805 22.664C34.5245 22.568 35.0365 22.376 35.5165 22.088C35.9965 21.8 36.3805 21.424 36.6685 20.96C36.9725 20.48 37.1245 19.936 37.1245 19.328C37.1245 18.96 37.0365 18.568 36.8605 18.152C36.7005 17.72 36.4365 17.392 36.0685 17.168C35.4765 17.776 34.8125 18.528 34.0765 19.424C33.3565 20.304 32.7085 21.264 32.1325 22.304C32.2125 22.224 32.2845 22.184 32.3485 22.184C32.4285 22.184 32.5005 22.216 32.5645 22.28C32.6445 22.344 32.6925 22.392 32.7085 22.424C32.9005 22.616 33.1805 22.712 33.5485 22.712Z" fill="#D7B94B"/>
<path d="M1 14V16.2963C1 25.1329 8.16344 32.2963 17 32.2963H54C62.8366 32.2963 70 39.4597 70 48.2963V52" stroke="#D7B94B" stroke-width="0.813566" stroke-linecap="round"/>
</svg>
